<svg width="32" height="41" viewBox="0 0 32 41" fill="none" xmlns="http://www.w3.org/2000/svg">
<path d="M23.25 16.7761C23.25 16.975 23.171 17.1657 23.0303 17.3064C22.8897 17.447 22.6989 17.5261 22.5 17.5261H16.75V23.2761C16.75 23.475 16.671 23.6657 16.5303 23.8064C16.3897 23.947 16.1989 24.0261 16 24.0261C15.8011 24.0261 15.6103 23.947 15.4697 23.8064C15.329 23.6657 15.25 23.475 15.25 23.2761V17.5261H9.5C9.30109 17.5261 9.11032 17.447 8.96967 17.3064C8.82902 17.1657 8.75 16.975 8.75 16.7761C8.75 16.5771 8.82902 16.3864 8.96967 16.2457C9.11032 16.1051 9.30109 16.0261 9.5 16.0261H15.25V10.2761C15.25 10.0771 15.329 9.88638 15.4697 9.74573C15.6103 9.60508 15.8011 9.52606 16 9.52606C16.1989 9.52606 16.3897 9.60508 16.5303 9.74573C16.671 9.88638 16.75 10.0771 16.75 10.2761V16.0261H22.5C22.6989 16.0261 22.8897 16.1051 23.0303 16.2457C23.171 16.3864 23.25 16.5771 23.25 16.7761Z" fill="#B3B3B3"/>
</svg>
