<svg width="32" height="32" viewBox="0 0 32 32" fill="none" xmlns="http://www.w3.org/2000/svg">
<path d="M23.25 16C23.25 16.1989 23.171 16.3897 23.0303 16.5303C22.8897 16.671 22.6989 16.75 22.5 16.75H16.75V22.5C16.75 22.6989 16.671 22.8897 16.5303 23.0303C16.3897 23.171 16.1989 23.25 16 23.25C15.8011 23.25 15.6103 23.171 15.4697 23.0303C15.329 22.8897 15.25 22.6989 15.25 22.5V16.75H9.5C9.30109 16.75 9.11032 16.671 8.96967 16.5303C8.82902 16.3897 8.75 16.1989 8.75 16C8.75 15.8011 8.82902 15.6103 8.96967 15.4697C9.11032 15.329 9.30109 15.25 9.5 15.25H15.25V9.5C15.25 9.30109 15.329 9.11032 15.4697 8.96967C15.6103 8.82902 15.8011 8.75 16 8.75C16.1989 8.75 16.3897 8.82902 16.5303 8.96967C16.671 9.11032 16.75 9.30109 16.75 9.5V15.25H22.5C22.6989 15.25 22.8897 15.329 23.0303 15.4697C23.171 15.6103 23.25 15.8011 23.25 16Z" fill="#B3B3B3"/>
</svg>
