<svg width="24" height="25" viewBox="0 0 24 25" fill="none" xmlns="http://www.w3.org/2000/svg">
<path d="M3 22.8442C2.73478 22.8442 2.48043 22.7388 2.29289 22.5513C2.10536 22.3637 2 22.1094 2 21.8442V3.84418C2 3.57896 2.10536 3.32461 2.29289 3.13707C2.48043 2.94953 2.73478 2.84418 3 2.84418C3.26522 2.84418 3.51957 2.94953 3.70711 3.13707C3.89464 3.32461 4 3.57896 4 3.84418V21.8442C4 22.1094 3.89464 22.3637 3.70711 22.5513C3.51957 22.7388 3.26522 22.8442 3 22.8442ZM15.5 2.97818C15.348 2.89041 15.1755 2.8442 15 2.8442C14.8245 2.8442 14.652 2.89041 14.5 2.97817C14.348 3.06594 14.2218 3.19217 14.134 3.34419C14.0462 3.4962 14 3.66864 14 3.84418V21.8442C14 22.1094 14.1054 22.3637 14.2929 22.5513C14.4804 22.7388 14.7348 22.8442 15 22.8442H21C21.2652 22.8442 21.5196 22.7388 21.7071 22.5513C21.8946 22.3637 22 22.1094 22 21.8442V7.30818C22 7.13265 21.9538 6.96021 21.866 6.80819C21.7783 6.65618 21.652 6.52994 21.5 6.44218L15.5 2.97818ZM9 2.84418C8.73478 2.84418 8.48043 2.94953 8.29289 3.13707C8.10536 3.32461 8 3.57896 8 3.84418V21.8442C8 22.1094 8.10536 22.3637 8.29289 22.5513C8.48043 22.7388 8.73478 22.8442 9 22.8442C9.26522 22.8442 9.51957 22.7388 9.70711 22.5513C9.89464 22.3637 10 22.1094 10 21.8442V3.84418C10 3.57896 9.89464 3.32461 9.70711 3.13707C9.51957 2.94953 9.26522 2.84418 9 2.84418Z" fill="#B3B3B3"/>
</svg>
