<svg width="17" height="17" viewBox="0 0 17 17" fill="none" xmlns="http://www.w3.org/2000/svg">
<path d="M8.15193 16.5452H7.99993C5.88487 16.5251 3.86385 15.6682 2.37891 14.1619C0.89397 12.6557 0.065971 10.6227 0.0760181 8.50753C0.0860652 6.39241 0.933341 4.36734 2.43252 2.87526C3.93171 1.38318 5.96078 0.545532 8.07593 0.545532C10.1911 0.545532 12.2201 1.38318 13.7193 2.87526C15.2185 4.36734 16.0658 6.39241 16.0758 8.50753C16.0859 10.6227 15.2579 12.6557 13.7729 14.1619C12.288 15.6682 10.267 16.5251 8.15193 16.5452ZM7.74193 2.34317C7.51593 2.61617 7.27893 3.05617 7.06493 3.66617C6.69593 4.72117 6.43893 6.16217 6.37793 7.79517H9.92493C9.86493 6.16217 9.60693 4.72117 9.23793 3.66617C9.02493 3.05617 8.78793 2.61617 8.56193 2.34317C8.36793 2.10817 8.23593 2.05817 8.17693 2.04717H8.13293C8.07793 2.05417 7.94293 2.09917 7.74193 2.34317ZM4.87693 7.79517C4.93893 6.02417 5.21693 4.40917 5.64993 3.17117C5.74893 2.88717 5.85793 2.61717 5.97893 2.36517C4.79825 2.75228 3.75309 3.46934 2.967 4.43158C2.1809 5.39381 1.68674 6.561 1.54293 7.79517H4.87693ZM1.54293 9.29517C1.68674 10.5293 2.1809 11.6965 2.967 12.6588C3.75309 13.621 4.79825 14.3381 5.97893 14.7252C5.85433 14.4627 5.74416 14.1936 5.64893 13.9192C5.21593 12.6812 4.93893 11.0662 4.87693 9.29517H1.54293ZM6.37793 9.29517C6.43893 10.9282 6.69593 12.3692 7.06493 13.4242C7.27893 14.0342 7.51593 14.4742 7.74193 14.7472C7.94393 14.9912 8.07793 15.0372 8.13293 15.0442L8.17693 15.0432C8.23693 15.0332 8.36693 14.9822 8.56193 14.7472C8.78793 14.4742 9.02493 14.0342 9.23793 13.4242C9.60793 12.3692 9.86393 10.9282 9.92493 9.29517H6.37793ZM11.4259 9.29517C11.3649 11.0662 11.0869 12.6812 10.6539 13.9192C10.5719 14.1542 10.4829 14.3792 10.3859 14.5932C11.4801 14.1607 12.4366 13.4396 13.1535 12.5067C13.8704 11.5737 14.3208 10.4638 14.4569 9.29517H11.4269H11.4259ZM14.4569 7.79517C14.3207 6.62654 13.8702 5.51669 13.1533 4.58376C12.4365 3.65083 11.4801 2.92972 10.3859 2.49717C10.4829 2.71117 10.5719 2.93717 10.6539 3.17117C11.0869 4.40917 11.3649 6.02417 11.4259 7.79517H14.4569Z" fill="white"/>
</svg>
