<svg width="30" height="36" viewBox="0 0 30 36" fill="none" xmlns="http://www.w3.org/2000/svg">
<rect x="0.0100098" y="0.871948" width="29.5017" height="34.8774" rx="14.7508" fill="#292929"/>
<path d="M20.55 12.7332C21.1888 12.2644 21.6643 11.514 21.883 10.6294C21.2881 11.0754 20.6352 11.3877 19.954 11.5519C19.6741 11.1753 19.335 10.8749 18.958 10.6694C18.5744 10.4576 18.1594 10.3495 17.74 10.3519C17.341 10.3443 16.945 10.439 16.5764 10.6301C16.2078 10.8212 15.8745 11.1047 15.597 11.4632C15.3098 11.8115 15.0828 12.2296 14.9299 12.6919C14.777 13.1541 14.7015 13.6506 14.708 14.1507C14.708 14.4157 14.735 14.7032 14.788 15.0144C13.5733 14.943 12.385 14.5457 11.304 13.8494C10.2361 13.1681 9.295 12.2132 8.54201 11.0469C8.27058 11.6239 8.12796 12.2813 8.12901 12.9507C8.12901 13.5994 8.24901 14.2007 8.49001 14.7569C8.73001 15.3132 9.06001 15.7632 9.47801 16.1069C8.99622 16.0975 8.52407 15.9367 8.10501 15.6394V15.6894C8.10501 16.5957 8.33501 17.3957 8.79501 18.0894C9.23356 18.7679 9.84923 19.2317 10.534 19.3994C10.0897 19.5566 9.62209 19.5805 9.16901 19.4694C9.35388 20.2204 9.72644 20.8775 10.232 21.3444C10.7408 21.8294 11.3622 22.094 12.002 22.0982C10.9328 23.1672 9.60113 23.7421 8.23201 23.7257C7.98901 23.7257 7.74801 23.7057 7.51001 23.6657C8.8926 24.7922 10.5097 25.3855 12.16 25.3719C13.065 25.3719 13.923 25.2219 14.732 24.9207C15.542 24.6207 16.258 24.2082 16.879 23.6857C17.498 23.1664 18.0633 22.5534 18.562 21.8607C19.062 21.1657 19.473 20.4169 19.796 19.6132C20.1152 18.8217 20.3627 17.9882 20.534 17.1282C20.7336 16.1364 20.8165 15.1136 20.78 14.0919C21.371 13.5571 21.8816 12.8956 22.288 12.1382C21.728 12.4494 21.148 12.6469 20.55 12.7332Z" fill="white"/>
</svg>
