<svg width="31" height="35" viewBox="0 0 31 35" fill="none" xmlns="http://www.w3.org/2000/svg">
<rect x="0.126465" width="30.4533" height="34.8774" rx="15.2267" fill="#292929"/>
<path d="M15.1265 10.44C17.2625 10.44 17.5155 10.449 18.3595 10.487C19.1395 10.523 19.5625 10.653 19.8445 10.763C20.1925 10.891 20.5075 11.095 20.7655 11.361C21.0315 11.619 21.2355 11.934 21.3645 12.282C21.4745 12.564 21.6045 12.988 21.6395 13.767C21.6785 14.611 21.6865 14.864 21.6865 17C21.6865 19.136 21.6785 19.389 21.6395 20.232C21.6045 21.012 21.4735 21.436 21.3645 21.718C21.2311 22.0628 21.0272 22.3759 20.7658 22.6373C20.5044 22.8987 20.1913 23.1026 19.8465 23.236C19.5645 23.346 19.1405 23.476 18.3605 23.511C17.5175 23.55 17.2635 23.558 15.1275 23.558C12.9915 23.558 12.7375 23.55 11.8955 23.511C11.1155 23.476 10.6915 23.346 10.4095 23.236C10.0615 23.1078 9.74676 22.9031 9.48846 22.637C9.2225 22.379 9.0178 22.0646 8.88946 21.717C8.77946 21.435 8.64946 21.011 8.61446 20.231C8.57646 19.387 8.56746 19.135 8.56746 16.999C8.56746 14.863 8.57646 14.609 8.61446 13.766C8.65046 12.986 8.78046 12.563 8.88946 12.281C9.01846 11.933 9.22246 11.618 9.48846 11.36C9.74675 11.0944 10.0611 10.8897 10.4085 10.761C10.6915 10.651 11.1155 10.521 11.8955 10.486C12.7385 10.448 12.9915 10.439 15.1275 10.439L15.1265 10.44ZM15.1275 8.99799C12.9555 8.99799 12.6825 9.00799 11.8295 9.04599C10.9755 9.08599 10.3945 9.22199 9.88646 9.41899C9.35272 9.62012 8.86918 9.93509 8.46946 10.342C8.06246 10.742 7.74746 11.225 7.54646 11.759C7.34846 12.267 7.21346 12.849 7.17446 13.701C7.13646 14.552 7.12646 14.826 7.12646 17C7.12646 19.172 7.13646 19.445 7.17446 20.298C7.21446 21.151 7.34846 21.731 7.54646 22.239C7.74646 22.773 8.06246 23.256 8.46946 23.656C8.86946 24.063 9.35246 24.378 9.88646 24.579C10.3945 24.777 10.9765 24.912 11.8285 24.951C12.6805 24.99 12.9545 24.999 15.1275 24.999C17.2995 24.999 17.5725 24.989 18.4255 24.951C19.2785 24.911 19.8585 24.777 20.3655 24.579C20.8971 24.3737 21.3799 24.0594 21.7829 23.6564C22.1859 23.2534 22.5001 22.7706 22.7055 22.239C22.9045 21.731 23.0395 21.149 23.0785 20.297C23.1175 19.446 23.1265 19.172 23.1265 16.999C23.1265 14.826 23.1165 14.554 23.0785 13.701C23.0385 12.848 22.9045 12.268 22.7065 11.761C22.5056 11.2268 22.1906 10.7429 21.7835 10.343C21.3837 9.93609 20.9002 9.62112 20.3665 9.41999C19.8585 9.22299 19.2765 9.08699 18.4245 9.04899C17.5735 9.00799 17.2995 8.99899 15.1265 8.99899L15.1275 8.99799Z" fill="white"/>
<path d="M15.1264 12.892C14.0369 12.892 12.992 13.3248 12.2216 14.0952C11.4512 14.8656 11.0184 15.9105 11.0184 17C11.0184 18.0895 11.4512 19.1344 12.2216 19.9048C12.992 20.6752 14.0369 21.108 15.1264 21.108C16.2159 21.108 17.2608 20.6752 18.0312 19.9048C18.8016 19.1344 19.2344 18.0895 19.2344 17C19.2344 15.9105 18.8016 14.8656 18.0312 14.0952C17.2608 13.3248 16.2159 12.892 15.1264 12.892ZM15.1264 19.667C14.7718 19.6738 14.4193 19.6099 14.0897 19.479C13.76 19.348 13.4598 19.1526 13.2066 18.9042C12.9533 18.6558 12.7522 18.3595 12.6148 18.0324C12.4775 17.7053 12.4068 17.3542 12.4068 16.9995C12.4068 16.6448 12.4775 16.2936 12.6148 15.9666C12.7522 15.6395 12.9533 15.3431 13.2066 15.0947C13.4598 14.8464 13.76 14.651 14.0897 14.52C14.4193 14.389 14.7718 14.3251 15.1264 14.332C15.825 14.3455 16.4903 14.6325 16.9795 15.1313C17.4687 15.6301 17.7428 16.3008 17.7428 16.9995C17.7428 17.6981 17.4687 18.3689 16.9795 18.8677C16.4903 19.3665 15.825 19.6535 15.1264 19.667ZM19.3964 13.689C19.651 13.689 19.8952 13.5878 20.0753 13.4078C20.2553 13.2278 20.3564 12.9836 20.3564 12.729C20.3564 12.4744 20.2553 12.2302 20.0753 12.0502C19.8952 11.8701 19.651 11.769 19.3964 11.769C19.1418 11.769 18.8976 11.8701 18.7176 12.0502C18.5376 12.2302 18.4364 12.4744 18.4364 12.729C18.4364 12.9836 18.5376 13.2278 18.7176 13.4078C18.8976 13.5878 19.1418 13.689 19.3964 13.689Z" fill="white"/>
</svg>
