<svg width="31" height="35" viewBox="0 0 31 35" fill="none" xmlns="http://www.w3.org/2000/svg">
<rect x="0.942261" width="29.5017" height="34.8774" rx="14.7508" fill="#292929"/>
<path d="M23.9423 17C23.942 15.4712 23.5037 13.9745 22.6793 12.6871C21.8549 11.3997 20.6788 10.3754 19.2903 9.73559C17.9019 9.09578 16.3592 8.8672 14.8448 9.07692C13.3305 9.28663 11.908 9.92587 10.7456 10.9189C9.5833 11.912 8.72986 13.2173 8.28633 14.6804C7.8428 16.1434 7.82777 17.7029 8.24301 19.1742C8.65825 20.6455 9.48637 21.967 10.6293 22.9823C11.7723 23.9976 13.1823 24.6642 14.6923 24.903V19.313H12.6613V17H14.6923V15.237C14.6923 13.232 15.8863 12.125 17.7143 12.125C18.5893 12.125 19.5043 12.281 19.5043 12.281V14.25H18.4963C17.5023 14.25 17.1923 14.867 17.1923 15.5V17H19.4113L19.0563 19.313H17.1923V24.903C19.074 24.6049 20.7876 23.6452 22.025 22.1966C23.2623 20.7479 23.9422 18.9052 23.9423 17Z" fill="white"/>
</svg>
