<svg width="33" height="44" viewBox="0 0 33 44" fill="none" xmlns="http://www.w3.org/2000/svg">
<path d="M18.526 1.58693C17.9467 0.960953 17.2337 0.621094 16.4998 0.621094C15.7659 0.621094 15.053 0.960953 14.4737 1.58693L0.640358 16.531C-0.600417 17.8764 0.0826695 20.6383 1.65509 20.6383H3.3001V38.9745C3.3001 40.1903 3.64777 41.3563 4.26663 42.216C4.88549 43.0756 5.72484 43.5586 6.60004 43.5586H13.1999V29.8064C13.1999 28.5906 13.5476 27.4247 14.1664 26.565C14.7853 25.7053 15.6246 25.2223 16.4998 25.2223C17.375 25.2223 18.2144 25.7053 18.8332 26.565C19.4521 27.4247 19.7998 28.5906 19.7998 29.8064V43.5586H26.3996C27.2748 43.5586 28.1142 43.0756 28.733 42.216C29.3519 41.3563 29.6996 40.1903 29.6996 38.9745V20.6383H31.3446C32.9154 20.6383 33.6017 17.8764 32.3593 16.5333L18.526 1.58693Z" fill="black"/>
</svg>
